<?xml version="1.0" standalone="no"?><!DOCTYPE svg PUBLIC "-//W3C//DTD SVG 1.1//EN" "http://www.w3.org/Graphics/SVG/1.1/DTD/svg11.dtd"><svg t="1675155811049" class="icon" viewBox="0 0 1024 1024" version="1.1" xmlns="http://www.w3.org/2000/svg" p-id="10783" xmlns:xlink="http://www.w3.org/1999/xlink" width="32" height="32"><path d="M560.48 252.128l31.04 7.744a16 16 0 0 1 11.648 19.424l-120.256 480.96a16 16 0 0 1-19.392 11.616l-31.04-7.744a16 16 0 0 1-11.648-19.424l120.256-480.96a16 16 0 0 1 19.392-11.616z m-198.784 111.2l22.624 22.624a16 16 0 0 1 0 22.624l-101.824 101.792 101.824 101.856a16 16 0 0 1 0 22.624l-22.624 22.624a16 16 0 0 1-22.624 0L225.952 544.32a48 48 0 0 1-3.136-64.448l3.136-3.424 113.12-113.12a16 16 0 0 1 22.624 0z m297.376 0a16 16 0 0 1 22.624 0l113.152 113.12 3.104 3.424a48 48 0 0 1-3.104 64.448l-113.152 113.152a16 16 0 0 1-22.624 0l-22.624-22.624a16 16 0 0 1 0-22.624l101.824-101.856-101.824-101.792a16 16 0 0 1 0-22.624z" fill="#2E343D" p-id="10784"></path></svg>