<?xml version="1.0" standalone="no"?><!DOCTYPE svg PUBLIC "-//W3C//DTD SVG 1.1//EN" "http://www.w3.org/Graphics/SVG/1.1/DTD/svg11.dtd"><svg t="1675155654449" class="icon" viewBox="0 0 1024 1024" version="1.1" xmlns="http://www.w3.org/2000/svg" p-id="10319" xmlns:xlink="http://www.w3.org/1999/xlink" width="32" height="32"><path d="M917.333333 298.666667H362.666667c-10.666667 0-21.333333-8.533333-21.333334-21.333334v-42.666666c0-10.666667 8.533333-21.333333 21.333334-21.333334h554.666666c10.666667 0 21.333333 8.533333 21.333334 21.333334v42.666666c0 12.8-8.533333 21.333333-21.333334 21.333334zM917.333333 554.666667H362.666667c-10.666667 0-21.333333-8.533333-21.333334-21.333334v-42.666666c0-10.666667 8.533333-21.333333 21.333334-21.333334h554.666666c10.666667 0 21.333333 8.533333 21.333334 21.333334v42.666666c0 12.8-8.533333 21.333333-21.333334 21.333334zM917.333333 810.666667H362.666667c-10.666667 0-21.333333-8.533333-21.333334-21.333334v-42.666666c0-10.666667 8.533333-21.333333 21.333334-21.333334h554.666666c10.666667 0 21.333333 8.533333 21.333334 21.333334v42.666666c0 12.8-8.533333 21.333333-21.333334 21.333334zM213.333333 426.666667H128c-23.466667 0-42.666667 19.2-42.666667 42.666666v85.333334c0 23.466667 19.2 42.666667 42.666667 42.666666h85.333333c23.466667 0 42.666667-19.2 42.666667-42.666666v-85.333334c0-23.466667-19.2-42.666667-42.666667-42.666666z m0 128H128v-85.333334h85.333333v85.333334zM213.333333 682.666667H128c-23.466667 0-42.666667 19.2-42.666667 42.666666v85.333334c0 23.466667 19.2 42.666667 42.666667 42.666666h85.333333c23.466667 0 42.666667-19.2 42.666667-42.666666v-85.333334c0-23.466667-19.2-42.666667-42.666667-42.666666z m0 128H128v-85.333334h85.333333v85.333334zM157.866667 334.933333l-66.133334-55.466666c-4.266667-4.266667-4.266667-10.666667-2.133333-14.933334l17.066667-17.066666c4.266667-4.266667 10.666667-4.266667 14.933333-2.133334l42.666667 36.266667 98.133333-104.533333c4.266667-4.266667 10.666667-4.266667 14.933333 0l14.933334 14.933333c4.266667 4.266667 4.266667 10.666667 0 14.933333l-119.466667 128c-2.133333 4.266667-8.533333 4.266667-14.933333 0z" fill="#000000" p-id="10320"></path></svg>