<?xml version="1.0" standalone="no"?><!DOCTYPE svg PUBLIC "-//W3C//DTD SVG 1.1//EN" "http://www.w3.org/Graphics/SVG/1.1/DTD/svg11.dtd"><svg t="1675155413564" class="icon" viewBox="0 0 1024 1024" version="1.1" xmlns="http://www.w3.org/2000/svg" p-id="1921" xmlns:xlink="http://www.w3.org/1999/xlink" width="32" height="32"><path d="M132.608 204.288m-66.56 0a66.56 66.56 0 1 0 133.12 0 66.56 66.56 0 1 0-133.12 0Z" p-id="1922" fill="#000000"></path><path d="M962.01728 158.80192l-680.68352 0.3584-0.04096 84.44928 680.7552-0.3584-0.03072-84.44928z" p-id="1923" fill="#000000"></path><path d="M132.608 512m-66.56 0a66.56 66.56 0 1 0 133.12 0 66.56 66.56 0 1 0-133.12 0Z" p-id="1924" fill="#000000"></path><path d="M281.33376 466.87232l-0.04096 84.44928 680.7552-0.3584-0.03072-84.44928-680.68352 0.3584z" p-id="1925" fill="#000000"></path><path d="M132.608 819.712m-66.56 0a66.56 66.56 0 1 0 133.12 0 66.56 66.56 0 1 0-133.12 0Z" p-id="1926" fill="#000000"></path><path d="M281.33376 775.59808l-0.04096 84.44928 680.7552-0.3584-0.03072-84.44928-680.68352 0.3584z" p-id="1927" fill="#000000"></path></svg>